<svg width="26" height="26" viewBox="0 0 26 26" fill="none" xmlns="http://www.w3.org/2000/svg">
<g clip-path="url(#clip0_830_4574)">
<path d="M13 0.636719C9.64238 0.636719 9.221 0.651401 7.90225 0.711416C6.58608 0.771689 5.68768 0.980067 4.90158 1.28581C4.08844 1.6016 3.39867 2.02402 2.71148 2.71149C2.02378 3.3987 1.60136 4.08849 1.28456 4.9014C0.97805 5.68778 0.76942 6.58646 0.710179 7.90216C0.651196 9.22095 0.635742 9.6426 0.635742 13.0004C0.635742 16.3581 0.650681 16.7782 0.710437 18.097C0.770966 19.4132 0.979338 20.3116 1.28481 21.0978C1.60085 21.9109 2.02326 22.6007 2.71071 23.2879C3.39764 23.9757 4.08741 24.3991 4.90004 24.7149C5.68665 25.0206 6.5853 25.229 7.90122 25.2893C9.21997 25.3493 9.64109 25.364 12.9985 25.364C16.3564 25.364 16.7765 25.3493 18.0952 25.2893C19.4114 25.229 20.3108 25.0206 21.0975 24.7149C21.9103 24.3991 22.5991 23.9757 23.286 23.2879C23.9737 22.6007 24.3961 21.9109 24.7129 21.098C25.0169 20.3116 25.2255 19.413 25.2873 18.0973C25.3466 16.7785 25.362 16.3581 25.362 13.0004C25.362 9.6426 25.3466 9.2212 25.2873 7.90242C25.2255 6.5862 25.0169 5.68778 24.7129 4.90166C24.3961 4.08849 23.9737 3.3987 23.286 2.71149C22.5983 2.02376 21.9106 1.60134 21.0967 1.28581C20.3085 0.980067 19.4096 0.771689 18.0934 0.711416C16.7747 0.651401 16.3549 0.636719 12.9962 0.636719H13ZM11.8909 2.86475C12.2201 2.86423 12.5874 2.86475 13 2.86475C16.301 2.86475 16.6923 2.8766 17.9958 2.93584C19.2012 2.99096 19.8555 3.19239 20.2913 3.36161C20.8682 3.5857 21.2796 3.85358 21.712 4.28631C22.1447 4.71904 22.4126 5.13116 22.6372 5.70813C22.8064 6.14343 23.0081 6.79767 23.063 8.00313C23.1222 9.30646 23.1351 9.69798 23.1351 12.9975C23.1351 16.2971 23.1222 16.6886 23.063 17.9919C23.0078 19.1974 22.8064 19.8516 22.6372 20.2869C22.4131 20.8639 22.1447 21.2747 21.712 21.7072C21.2793 22.1399 20.8685 22.4078 20.2913 22.6319C19.856 22.8019 19.2012 23.0028 17.9958 23.0579C16.6925 23.1172 16.301 23.13 13 23.13C9.69879 23.13 9.30754 23.1172 8.00425 23.0579C6.79883 23.0023 6.14461 22.8009 5.70854 22.6316C5.13159 22.4075 4.71948 22.1397 4.28677 21.7069C3.85405 21.2742 3.58618 20.8631 3.36158 20.2859C3.19236 19.8506 2.99069 19.1963 2.93582 17.9909C2.87658 16.6876 2.86474 16.296 2.86474 12.9944C2.86474 9.69283 2.87658 9.30337 2.93582 8.00004C2.99094 6.79458 3.19236 6.14034 3.36158 5.70452C3.58567 5.12755 3.85405 4.71543 4.28677 4.2827C4.71948 3.84998 5.13159 3.5821 5.70854 3.35749C6.14435 3.18749 6.79883 2.98658 8.00425 2.9312C9.14476 2.87969 9.58675 2.86423 11.8909 2.86166V2.86475ZM19.5994 4.91763C18.7804 4.91763 18.1158 5.5814 18.1158 6.40075C18.1158 7.21984 18.7804 7.88439 19.5994 7.88439C20.4185 7.88439 21.083 7.21984 21.083 6.40075C21.083 5.58166 20.4185 4.91711 19.5994 4.91711V4.91763ZM13 6.65111C9.49376 6.65111 6.65098 9.49398 6.65098 13.0004C6.65098 16.5067 9.49376 19.3483 13 19.3483C16.5063 19.3483 19.3481 16.5067 19.3481 13.0004C19.3481 9.49398 16.5061 6.65111 12.9998 6.65111H13ZM13 8.87914C15.2759 8.87914 17.1211 10.7242 17.1211 13.0004C17.1211 15.2763 15.2759 17.1216 13 17.1216C10.7239 17.1216 8.87895 15.2763 8.87895 13.0004C8.87895 10.7242 10.7239 8.87914 13 8.87914Z" fill="white"/>
</g>
<defs>
<clipPath id="clip0_830_4574">
<rect width="26" height="26" fill="white"/>
</clipPath>
</defs>
</svg>
