<svg width="92" height="39" viewBox="0 0 92 39" fill="none" xmlns="http://www.w3.org/2000/svg">
<g clip-path="url(#clip0_835_6513)">
<path d="M0.0786133 0.513184H4.41425V29.1025H0.0786133V0.513184Z" fill="white"/>
<path d="M43.8359 0.513184H53.8347C57.6075 0.513184 60.7009 2.20003 62.5468 5.33209C63.9525 7.74141 64.0721 8.82593 64.0721 14.8078C64.0721 21.2332 63.7512 22.3586 62.4659 24.3655C60.7815 27.0151 57.8088 29.1025 53.553 29.1025H43.8359V0.513184ZM48.1729 25.0074H53.3525C55.8013 25.0074 57.5282 24.165 58.6525 22.5185C59.6164 21.0738 59.7365 20.2694 59.7365 14.9691C59.7365 9.82927 59.6166 8.5851 58.4512 7.01866C57.1264 5.20978 55.6812 4.60935 53.3525 4.60935H48.1729V25.0074Z" fill="white"/>
<path d="M84.7723 22.7185H73.9293L71.7213 29.1025H67.1421L77.544 0.513184H81.158L91.5581 29.1025H86.9803L84.7723 22.7185ZM83.5265 18.8645L79.3924 6.37467H79.311L75.1748 18.8645H83.5265Z" fill="white"/>
<path d="M24.6159 6.22948C24.3689 6.47626 23.9644 6.47626 23.7176 6.22948L21.1411 3.6524C20.8937 3.40562 20.8937 3.00109 21.1411 2.75431L23.7176 0.178043C23.9644 -0.0684624 24.3689 -0.0684624 24.6159 0.178043L27.1928 2.75431C27.4398 3.00136 27.4398 3.40562 27.1928 3.6524L24.6159 6.22948Z" fill="white"/>
<path d="M15.0986 29.105C15.1996 29.105 15.2899 29.1058 15.3752 29.105H15.0986Z" fill="url(#paint0_linear_835_6513)"/>
<path d="M32.5459 3.91338C32.5559 3.90702 32.5655 3.89817 32.5763 3.89209C32.5661 3.89762 32.5559 3.90729 32.5459 3.91338Z" fill="url(#paint1_linear_835_6513)"/>
<path d="M15.6266 29.0713C15.5869 29.0827 15.546 29.0935 15.5024 29.0973C15.5449 29.0929 15.5869 29.0824 15.6266 29.0713Z" fill="url(#paint2_linear_835_6513)"/>
<path d="M11.5317 7.82471C11.5339 7.83838 11.5371 7.85205 11.5398 7.86491C11.5371 7.85205 11.5331 7.83838 11.5317 7.82471Z" fill="url(#paint3_linear_835_6513)"/>
<path d="M11.5169 25.2241C11.5153 25.3094 11.5166 25.4003 11.5169 25.5009V25.2241Z" fill="url(#paint4_linear_835_6513)"/>
<path d="M32.6499 29.0596C32.7159 29.0834 32.7852 29.0977 32.8577 29.1021C32.7844 29.1002 32.7148 29.0853 32.6499 29.0596Z" fill="url(#paint5_linear_835_6513)"/>
<path d="M15.8986 28.9248C15.8493 28.9732 15.7903 29.0103 15.7275 29.0406C15.7852 29.0149 15.8417 28.9746 15.8986 28.9248Z" fill="url(#paint6_linear_835_6513)"/>
<path d="M36.8169 25.1831V25.524C36.8169 25.3958 36.8199 25.2862 36.8169 25.1831Z" fill="url(#paint7_linear_835_6513)"/>
<path d="M33.2339 29.105H32.9165C33.0131 29.1069 33.1159 29.105 33.2339 29.105Z" fill="url(#paint8_linear_835_6513)"/>
<path d="M32.2471 28.4803V25.1599C32.2471 24.8163 32.5285 24.5349 32.8727 24.5349H36.1917C36.4491 24.5349 36.6712 24.6934 36.7667 24.9172C36.737 24.8439 36.6953 24.7711 36.622 24.6983L28.8315 16.9045C28.5847 16.6575 28.5847 16.2535 28.8315 16.0064L36.5622 8.27141C36.5814 8.25193 36.5911 8.23082 36.6079 8.21026C36.4967 8.31119 36.3533 8.37668 36.1923 8.37668H32.8724C32.5285 8.37668 32.2468 8.09499 32.2468 7.75215V4.43123C32.2468 4.26644 32.3145 4.11761 32.42 4.00586C32.4081 4.01695 32.3951 4.02075 32.3832 4.03319L24.6149 11.7904C24.3684 12.0372 23.9639 12.0372 23.7168 11.7904L15.9452 4.0386C15.9387 4.03184 15.9306 4.02913 15.9241 4.02264C16.0215 4.13358 16.0854 4.27374 16.0862 4.43123L16.0865 7.75215C16.0868 8.09499 15.8053 8.37668 15.462 8.37668H12.1418C11.979 8.37668 11.8334 8.31011 11.7216 8.20783C11.7273 8.2127 11.7287 8.21865 11.7341 8.22406L19.5008 16.0064C19.7481 16.2535 19.7481 16.6575 19.5008 16.9045L11.7184 24.6883C11.6459 24.7608 11.6031 24.8336 11.5723 24.908C11.6699 24.6894 11.888 24.5346 12.1418 24.5346H15.4606C15.8045 24.5346 16.0854 24.816 16.0859 25.1596L16.0862 28.48C16.0865 28.6513 16.0164 28.8072 15.9036 28.9203C15.9139 28.9103 15.9255 28.9073 15.9363 28.8965L23.7165 21.1208C23.9636 20.8743 24.3681 20.8743 24.6146 21.1208L32.403 28.9062C32.4763 28.9795 32.5491 29.0217 32.624 29.0523C32.4035 28.9557 32.2471 28.7355 32.2471 28.4803Z" fill="url(#paint9_linear_835_6513)"/>
<path d="M36.7671 24.918C36.7977 24.9908 36.8139 25.0703 36.815 25.1534C36.8107 25.0709 36.7966 24.9924 36.7671 24.918Z" fill="url(#paint10_linear_835_6513)"/>
<path d="M11.5585 24.9551C11.5398 25.0138 11.5263 25.0741 11.522 25.138C11.5239 25.0736 11.5385 25.013 11.5585 24.9551Z" fill="url(#paint11_linear_835_6513)"/>
<path d="M15.4607 3.80762H12.1419C11.798 3.80762 11.5166 4.08903 11.5166 4.43187V7.75279C11.5166 8.09563 11.798 8.37732 12.1419 8.37732H15.462C15.8054 8.37732 16.0868 8.09563 16.0866 7.75279L16.0863 4.43187C16.0855 4.08876 15.8046 3.80762 15.4607 3.80762Z" fill="white"/>
<path d="M36.1912 3.80762H32.8722C32.5283 3.80762 32.2466 4.08903 32.2466 4.43187V7.75279C32.2466 8.09563 32.528 8.37732 32.8722 8.37732H36.192C36.536 8.37732 36.8168 8.09563 36.8168 7.75279V4.43187C36.8147 4.08876 36.5346 3.80762 36.1912 3.80762Z" fill="white"/>
<path d="M15.4607 24.5352H12.1419C11.798 24.5352 11.5166 24.8166 11.5166 25.1602V28.4806C11.5166 28.8237 11.798 29.1057 12.1419 29.1057H15.462C15.8054 29.1057 16.0868 28.8237 16.0866 28.4806L16.0863 25.1602C16.0855 24.8166 15.8046 24.5352 15.4607 24.5352Z" fill="white"/>
<path d="M36.1912 24.5352H32.8722C32.5283 24.5352 32.2466 24.8166 32.2466 25.1602V28.4806C32.2466 28.8237 32.528 29.1057 32.8722 29.1057H36.192C36.536 29.1057 36.8168 28.8237 36.8168 28.4806V25.1602C36.8147 24.8166 36.5346 24.5352 36.1912 24.5352Z" fill="white"/>
<path d="M1.35967 37.3433L0.279297 34.0707H0.802637L1.54834 36.5616H1.55732L2.30303 34.0707H2.82637L1.746 37.3433H1.35967Z" fill="white"/>
<path d="M15.3645 37.3433V34.0707H17.4579V34.5401H15.8609V35.4723H17.222V35.9147H15.8609V36.8761H17.4579V37.3433H15.3645Z" fill="white"/>
<path d="M30.1106 37.3433V34.0707H30.607V36.8761H32.2039V37.3433H30.1106Z" fill="white"/>
<path d="M44.8566 37.3433V34.0707H45.353V36.8761H46.95V37.3433H44.8566Z" fill="white"/>
<path d="M59.4926 35.7081C59.4926 35.3143 59.5031 35.0605 59.5241 34.9467C59.545 34.8329 59.5825 34.7281 59.6364 34.6322C59.7127 34.49 59.8378 34.356 60.0115 34.2302C60.1867 34.1044 60.403 34.0415 60.6606 34.0415C60.9166 34.0415 61.1315 34.1044 61.3052 34.2302C61.4804 34.356 61.6077 34.49 61.687 34.6322C61.7395 34.7281 61.7761 34.8329 61.7971 34.9467C61.8181 35.0605 61.8285 35.3143 61.8285 35.7081C61.8285 36.1019 61.8181 36.3557 61.7971 36.4695C61.7761 36.5833 61.7395 36.6882 61.687 36.784C61.6077 36.9277 61.4804 37.0618 61.3052 37.186C61.1315 37.3088 60.9166 37.3702 60.6606 37.3702C60.403 37.3702 60.1867 37.3088 60.0115 37.186C59.8378 37.0618 59.7127 36.9277 59.6364 36.784C59.5825 36.6882 59.545 36.5833 59.5241 36.4695C59.5031 36.3557 59.4926 36.1019 59.4926 35.7081ZM59.989 35.7081C59.989 36.045 60.0002 36.2636 60.0227 36.364C60.0466 36.4643 60.0908 36.5549 60.1552 36.6357C60.2046 36.7016 60.272 36.7585 60.3574 36.8064C60.4427 36.8529 60.5438 36.8761 60.6606 36.8761C60.7774 36.8761 60.8785 36.8529 60.9638 36.8064C61.0492 36.7585 61.1165 36.7016 61.166 36.6357C61.2303 36.5549 61.2738 36.4643 61.2962 36.364C61.3202 36.2636 61.3322 36.045 61.3322 35.7081C61.3322 35.3727 61.3202 35.1548 61.2962 35.0545C61.2738 34.9542 61.2303 34.8621 61.166 34.7782C61.1165 34.7153 61.0492 34.6599 60.9638 34.612C60.8785 34.5641 60.7774 34.5401 60.6606 34.5401C60.5438 34.5401 60.4427 34.5641 60.3574 34.612C60.272 34.6599 60.2046 34.7153 60.1552 34.7782C60.0908 34.8621 60.0466 34.9542 60.0227 35.0545C60.0002 35.1548 59.989 35.3727 59.989 35.7081Z" fill="white"/>
<path d="M75.0967 34.5109V35.5037H75.8469C76.0325 35.5037 76.1718 35.4521 76.2646 35.3487C76.3575 35.2454 76.4039 35.1241 76.4039 34.9849C76.4039 34.8187 76.3485 34.6944 76.2377 34.612C76.1449 34.5446 76.0243 34.5109 75.8761 34.5109H75.0967ZM74.6003 37.3433V34.0707H75.8806C76.1606 34.0707 76.3822 34.1426 76.5454 34.2863C76.6367 34.3657 76.7139 34.4653 76.7768 34.5851C76.8411 34.7049 76.8733 34.8381 76.8733 34.9849C76.8733 35.196 76.8164 35.3832 76.7026 35.5464C76.5903 35.7081 76.4353 35.8227 76.2377 35.89L76.9969 37.3433H76.4084L75.7323 35.9462H75.0967V37.3433H74.6003Z" fill="white"/>
<path d="M89.5979 37.3433V34.0707H91.6913V34.5401H90.0943V35.4723H91.4554V35.9147H90.0943V36.8761H91.6913V37.3433H89.5979Z" fill="white"/>
</g>
<defs>
<linearGradient id="paint0_linear_835_6513" x1="15.2369" y1="29.105" x2="15.2369" y2="29.1053" gradientUnits="userSpaceOnUse">
<stop stop-color="#FF4848"/>
<stop offset="0.26875" stop-color="#2C4CBE"/>
<stop offset="0.570833" stop-color="#57176D"/>
<stop offset="1" stop-color="#7E174F" stop-opacity="0.89"/>
</linearGradient>
<linearGradient id="paint1_linear_835_6513" x1="32.5611" y1="3.89209" x2="32.5611" y2="3.91338" gradientUnits="userSpaceOnUse">
<stop stop-color="#FF4848"/>
<stop offset="0.26875" stop-color="#2C4CBE"/>
<stop offset="0.570833" stop-color="#57176D"/>
<stop offset="1" stop-color="#7E174F" stop-opacity="0.89"/>
</linearGradient>
<linearGradient id="paint2_linear_835_6513" x1="15.5645" y1="29.0713" x2="15.5645" y2="29.0973" gradientUnits="userSpaceOnUse">
<stop stop-color="#FF4848"/>
<stop offset="0.26875" stop-color="#2C4CBE"/>
<stop offset="0.570833" stop-color="#57176D"/>
<stop offset="1" stop-color="#7E174F" stop-opacity="0.89"/>
</linearGradient>
<linearGradient id="paint3_linear_835_6513" x1="11.5358" y1="7.82471" x2="11.5358" y2="7.86491" gradientUnits="userSpaceOnUse">
<stop stop-color="#FF4848"/>
<stop offset="0.26875" stop-color="#2C4CBE"/>
<stop offset="0.570833" stop-color="#57176D"/>
<stop offset="1" stop-color="#7E174F" stop-opacity="0.89"/>
</linearGradient>
<linearGradient id="paint4_linear_835_6513" x1="11.5165" y1="25.2241" x2="11.5165" y2="25.5009" gradientUnits="userSpaceOnUse">
<stop stop-color="#FF4848"/>
<stop offset="0.26875" stop-color="#2C4CBE"/>
<stop offset="0.570833" stop-color="#57176D"/>
<stop offset="1" stop-color="#7E174F" stop-opacity="0.89"/>
</linearGradient>
<linearGradient id="paint5_linear_835_6513" x1="32.7538" y1="29.0596" x2="32.7538" y2="29.1021" gradientUnits="userSpaceOnUse">
<stop stop-color="#FF4848"/>
<stop offset="0.26875" stop-color="#2C4CBE"/>
<stop offset="0.570833" stop-color="#57176D"/>
<stop offset="1" stop-color="#7E174F" stop-opacity="0.89"/>
</linearGradient>
<linearGradient id="paint6_linear_835_6513" x1="15.813" y1="28.9248" x2="15.813" y2="29.0406" gradientUnits="userSpaceOnUse">
<stop stop-color="#FF4848"/>
<stop offset="0.26875" stop-color="#2C4CBE"/>
<stop offset="0.570833" stop-color="#57176D"/>
<stop offset="1" stop-color="#7E174F" stop-opacity="0.89"/>
</linearGradient>
<linearGradient id="paint7_linear_835_6513" x1="36.8176" y1="25.1831" x2="36.8176" y2="25.524" gradientUnits="userSpaceOnUse">
<stop stop-color="#FF4848"/>
<stop offset="0.26875" stop-color="#2C4CBE"/>
<stop offset="0.570833" stop-color="#57176D"/>
<stop offset="1" stop-color="#7E174F" stop-opacity="0.89"/>
</linearGradient>
<linearGradient id="paint8_linear_835_6513" x1="33.0752" y1="29.105" x2="33.0752" y2="29.1058" gradientUnits="userSpaceOnUse">
<stop stop-color="#FF4848"/>
<stop offset="0.26875" stop-color="#2C4CBE"/>
<stop offset="0.570833" stop-color="#57176D"/>
<stop offset="1" stop-color="#7E174F" stop-opacity="0.89"/>
</linearGradient>
<linearGradient id="paint9_linear_835_6513" x1="24.1695" y1="4.00586" x2="24.1695" y2="29.0523" gradientUnits="userSpaceOnUse">
<stop stop-color="#CAFB5B"/>
<stop offset="0.489583" stop-color="#FFC3ED"/>
<stop offset="1" stop-color="#B19BFF"/>
</linearGradient>
<linearGradient id="paint10_linear_835_6513" x1="36.791" y1="24.918" x2="36.791" y2="25.1534" gradientUnits="userSpaceOnUse">
<stop stop-color="#FF4848"/>
<stop offset="0.26875" stop-color="#2C4CBE"/>
<stop offset="0.570833" stop-color="#57176D"/>
<stop offset="1" stop-color="#7E174F" stop-opacity="0.89"/>
</linearGradient>
<linearGradient id="paint11_linear_835_6513" x1="11.5402" y1="24.9551" x2="11.5402" y2="25.138" gradientUnits="userSpaceOnUse">
<stop stop-color="#FF4848"/>
<stop offset="0.26875" stop-color="#2C4CBE"/>
<stop offset="0.570833" stop-color="#57176D"/>
<stop offset="1" stop-color="#7E174F" stop-opacity="0.89"/>
</linearGradient>
<clipPath id="clip0_835_6513">
<rect width="92" height="38.4235" fill="white"/>
</clipPath>
</defs>
</svg>
