<svg width="33" height="32" viewBox="0 0 33 32" fill="none" xmlns="http://www.w3.org/2000/svg">
<path fill-rule="evenodd" clip-rule="evenodd" d="M0.5 2.67346C0.5 1.96441 0.781667 1.28441 1.28304 0.78304C1.78441 0.28167 2.46441 3.56409e-06 3.17345 3.56409e-06H29.8236C30.175 -0.000570329 30.5231 0.0681678 30.8478 0.202282C31.1726 0.336397 31.4678 0.533254 31.7164 0.781583C31.965 1.02991 32.1621 1.32484 32.2966 1.64947C32.4311 1.97411 32.5002 2.32208 32.5 2.67346V29.3236C32.5004 29.6751 32.4315 30.0232 32.2972 30.348C32.1629 30.6727 31.9659 30.9679 31.7175 31.2165C31.469 31.465 31.174 31.6622 30.8493 31.7966C30.5246 31.9311 30.1765 32.0002 29.8251 32H3.17345C2.82225 32 2.47449 31.9308 2.15003 31.7964C1.82558 31.6619 1.53079 31.4649 1.28252 31.2165C1.03425 30.968 0.837356 30.6732 0.703087 30.3486C0.568819 30.0241 0.499809 29.6763 0.5 29.3251V2.67346ZM13.1662 12.2007H17.4993V14.3767C18.1247 13.1258 19.7247 12 22.1291 12C26.7385 12 27.8309 14.4916 27.8309 19.0633V27.5316H23.1662V20.1047C23.1662 17.5011 22.5407 16.032 20.9524 16.032C18.7487 16.032 17.8324 17.616 17.8324 20.1047V27.5316H13.1662V12.2007ZM5.16618 27.3324H9.83236V12H5.16618V27.3309V27.3324ZM10.5 6.99928C10.5088 7.3988 10.4377 7.79606 10.2909 8.16773C10.1441 8.53941 9.92451 8.87802 9.64506 9.16369C9.36562 9.44935 9.03193 9.67633 8.66357 9.83129C8.29522 9.98624 7.89962 10.0661 7.5 10.0661C7.10038 10.0661 6.70478 9.98624 6.33643 9.83129C5.96808 9.67633 5.63438 9.44935 5.35494 9.16369C5.07549 8.87802 4.85592 8.53941 4.70911 8.16773C4.56229 7.79606 4.4912 7.3988 4.5 6.99928C4.51727 6.21506 4.84092 5.46879 5.40165 4.92027C5.96238 4.37176 6.7156 4.06461 7.5 4.06461C8.2844 4.06461 9.03762 4.37176 9.59835 4.92027C10.1591 5.46879 10.4827 6.21506 10.5 6.99928Z" fill="white"/>
</svg>
