<svg width="27" height="26" viewBox="0 0 27 26" fill="none" xmlns="http://www.w3.org/2000/svg">
<g clip-path="url(#clip0_830_4578)">
<path d="M22.649 22.0803H18.7972V16.0671C18.7972 14.6332 18.7716 12.7873 16.7939 12.7873C14.7878 12.7873 14.4809 14.3496 14.4809 15.9627V22.0799H10.6291V9.71431H14.3268V11.4042H14.3786C14.7486 10.7735 15.2834 10.2546 15.9258 9.90283C16.5683 9.55108 17.2944 9.37963 18.0269 9.40673C21.9308 9.40673 22.6506 11.9666 22.6506 15.2967L22.649 22.0803ZM6.28312 8.02402C5.84104 8.0241 5.40885 7.8935 5.04123 7.64872C4.6736 7.40394 4.38707 7.05598 4.21782 6.64886C4.04857 6.24173 4.00421 5.79371 4.09038 5.36146C4.17655 4.9292 4.38937 4.53213 4.70191 4.22045C5.01446 3.90876 5.41269 3.69647 5.84627 3.61042C6.27984 3.52436 6.72926 3.56841 7.13773 3.73699C7.54619 3.90556 7.89533 4.1911 8.141 4.55749C8.38668 4.92388 8.51785 5.35467 8.51793 5.79537C8.51798 6.08799 8.46021 6.37775 8.34793 6.64812C8.23565 6.91848 8.07107 7.16415 7.86354 7.3711C7.65602 7.57805 7.40963 7.74222 7.13846 7.85425C6.86729 7.96628 6.57665 8.02397 6.28312 8.02402ZM8.20898 22.0803H4.35324V9.71431H8.20898V22.0803ZM24.5692 0.00176555H2.41776C1.91498 -0.00389061 1.4305 0.189671 1.07081 0.539916C0.711118 0.890161 0.505648 1.36843 0.499512 1.86964V24.0437C0.505438 24.5452 0.710787 25.0238 1.07046 25.3744C1.43014 25.725 1.91473 25.9189 2.41776 25.9136H24.5692C25.0732 25.9199 25.5592 25.7265 25.9203 25.3759C26.2814 25.0253 26.4881 24.5462 26.4951 24.0437V1.86804C26.4879 1.36584 26.281 0.887023 25.9199 0.536786C25.5588 0.18655 25.073 -0.00645839 24.5692 0.000165008" fill="white"/>
</g>
<defs>
<clipPath id="clip0_830_4578">
<rect width="26" height="26" fill="white" transform="translate(0.5)"/>
</clipPath>
</defs>
</svg>
