<svg width="284" height="75" viewBox="0 0 284 75" fill="none" xmlns="http://www.w3.org/2000/svg">
<rect width="284" height="75" fill="white"/>
<path d="M81.1425 36.7354C81.1425 43.4105 79.1596 49.9357 75.4446 55.4858C71.7295 61.036 66.4492 65.3618 60.2713 67.9163C54.0934 70.4707 47.2955 71.1391 40.7371 69.8369C34.1787 68.5346 28.1544 65.3202 23.426 60.6002C18.6977 55.8802 15.4776 49.8665 14.1731 43.3197C12.8685 36.7728 13.5381 29.9868 16.097 23.8198C18.656 17.6528 22.9895 12.3817 28.5494 8.67325C34.1094 4.96475 40.6461 2.98535 47.333 2.98535C56.2986 2.98933 64.8959 6.5464 71.2355 12.8749C77.5752 19.2034 81.1385 27.7855 81.1425 36.7354Z" fill="black"/>
<path d="M63.0951 20.7148H37.8657C30.0669 20.7148 25.8445 27.2998 24.0864 32.3398C21.9977 38.1448 21.6221 48.7348 21.6221 50.8798V52.0948C21.626 52.2354 21.6847 52.369 21.7857 52.467C21.8868 52.5651 22.0221 52.6199 22.163 52.6198H26.8813C27.0222 52.6199 27.1576 52.5651 27.2586 52.467C27.3597 52.369 27.4184 52.2354 27.4223 52.0948V50.9398C27.2951 49.2568 27.4732 47.5647 27.9482 45.9448C29.1052 42.2698 31.0437 40.1998 34.9055 40.0498H38.0159V52.0498C38.0198 52.1904 38.0786 52.324 38.1796 52.422C38.2806 52.5201 38.416 52.5749 38.5569 52.5748H43.8462C43.9871 52.5749 44.1225 52.5201 44.2235 52.422C44.3245 52.324 44.3832 52.1904 44.3871 52.0498V46.8148C44.3836 46.305 44.4648 45.7981 44.6276 45.3148C44.8045 44.4742 45.2506 43.7137 45.8984 43.1482C46.5462 42.5827 47.3606 42.2428 48.2189 42.1798C50.6081 42.1798 51.4646 44.1448 51.4646 46.8748V52.1248C51.4646 52.1951 51.4787 52.2646 51.506 52.3293C51.5334 52.394 51.5735 52.4525 51.6239 52.5015C51.6744 52.5504 51.7341 52.5888 51.7997 52.6143C51.8652 52.6397 51.9352 52.6518 52.0056 52.6498H57.5353C57.6049 52.6519 57.6742 52.6398 57.739 52.6141C57.8037 52.5885 57.8625 52.5499 57.9118 52.5007C57.9611 52.4515 57.9997 52.3928 58.0254 52.3282C58.0511 52.2635 58.0633 52.1943 58.0612 52.1248V46.5298C58.0783 46.0206 58.1642 45.5161 58.3167 45.0298C58.489 44.2612 58.9081 43.5698 59.5103 43.0607C60.1124 42.5517 60.8647 42.2529 61.6525 42.2098C64.1319 42.2098 65.0335 44.1748 65.0335 47.5048V52.1548C65.0374 52.2954 65.0961 52.429 65.1972 52.527C65.2982 52.6251 65.4335 52.6799 65.5744 52.6798H71.4648C71.6072 52.68 71.7443 52.6257 71.8477 52.528C71.9511 52.4303 72.0131 52.2968 72.0208 52.1548V28.8598C72.0508 24.3598 67.603 20.7148 63.0951 20.7148ZM38.2864 33.2248H36.8739C35.3713 33.2248 34.4697 32.4148 34.4697 31.1998C34.4697 29.9848 35.4614 29.2348 36.919 29.2348C37.3785 29.2267 37.8374 29.272 38.2864 29.3698V33.2248Z" fill="white"/>
<path d="M91.9912 20.8498C94.8851 20.36 97.8165 20.1241 100.752 20.1448C105.26 20.1448 108.37 20.8948 110.534 22.6798C111.439 23.4736 112.154 24.4596 112.627 25.5653C113.1 26.671 113.319 27.8685 113.269 29.0698C113.266 30.8271 112.704 32.5381 111.664 33.9561C110.625 35.3742 109.161 36.4259 107.483 36.9598V37.1098C109.783 37.9498 111.15 40.1098 111.901 43.2148C112.571 46.203 113.403 49.1524 114.396 52.0498H108.475C107.521 49.6262 106.812 47.1138 106.357 44.5498C105.41 40.4098 103.952 39.1048 100.661 38.9998H97.7463V52.0198H91.9912V20.8498ZM97.7463 34.7998H101.172C105.079 34.7998 107.483 32.7448 107.483 29.5948C107.483 26.1598 105.079 24.5098 101.323 24.5098C100.124 24.4772 98.9249 24.5728 97.7463 24.7948V34.7998Z" fill="black"/>
<path d="M126.207 52.5604C119.76 52.5604 114.727 48.1504 114.727 40.7704C114.727 33.3904 119.67 28.6504 126.582 28.6504C133.495 28.6504 137.973 33.4504 137.973 40.3954C137.973 48.8104 132.052 52.5604 126.252 52.5604H126.207ZM126.402 48.3904C129.693 48.3904 132.007 45.1804 132.007 40.5454C132.007 36.9604 130.399 32.8354 126.447 32.8354C122.495 32.8354 120.707 36.8254 120.707 40.6354C120.707 45.0454 122.916 48.3904 126.357 48.3904H126.402Z" fill="black"/>
<path d="M140.618 46.695C142.393 47.7286 144.395 48.3107 146.448 48.39C148.987 48.39 150.114 47.295 150.114 45.795C150.114 44.295 149.183 43.5 146.358 42.465C141.85 40.965 140.047 38.52 140.047 35.79C140.047 31.755 143.383 28.65 148.702 28.65C150.826 28.6086 152.928 29.0767 154.833 30.015L153.646 34.05C152.167 33.2202 150.504 32.7716 148.807 32.745C146.734 32.745 145.607 33.765 145.607 35.175C145.607 36.585 146.688 37.29 149.604 38.37C153.796 39.87 155.614 41.94 155.719 45.33C155.719 49.515 152.474 52.515 146.403 52.515C143.984 52.5564 141.591 52.0108 139.431 50.925L140.618 46.695Z" fill="black"/>
<path d="M163.157 42.2245C163.293 46.3645 166.538 48.2245 170.22 48.2245C172.378 48.2552 174.525 47.9048 176.561 47.1895L177.418 51.1345C174.874 52.1588 172.151 52.6686 169.408 52.6345C161.985 52.6345 157.598 48.1345 157.598 41.0845C157.598 34.7395 161.459 28.7695 168.807 28.7695C176.155 28.7695 178.65 34.7545 178.65 39.7345C178.657 40.5531 178.597 41.3709 178.469 42.1795L163.157 42.2245ZM173.225 38.1895C173.225 36.0745 172.339 32.5945 168.477 32.5945C164.901 32.5945 163.383 35.8345 163.157 38.1895H173.225Z" fill="black"/>
<path d="M181.459 35.9851C181.459 33.3451 181.368 31.1401 181.278 29.1751H186.312L186.598 32.5951H186.733C187.508 31.3566 188.594 30.3414 189.883 29.6496C191.171 28.9577 192.618 28.6133 194.081 28.6501C198.078 28.6501 202.21 31.2301 202.21 38.4751V52.0501H196.425V39.1351C196.425 35.8351 195.208 33.3451 192.052 33.3451C191.041 33.3728 190.064 33.714 189.256 34.3215C188.448 34.9291 187.85 35.7726 187.544 36.7351C187.347 37.3247 187.25 37.9434 187.259 38.5651V52.0651H181.474L181.459 35.9851Z" fill="black"/>
<path d="M207.636 52.0502V33.4952H204.525V29.2352H207.636V28.1852C207.555 26.767 207.757 25.3468 208.232 24.0075C208.707 22.6683 209.444 21.4369 210.401 20.3852C212.051 18.9155 214.2 18.1272 216.411 18.1802C217.655 18.1731 218.892 18.3604 220.078 18.7352L219.702 23.2352C218.904 22.9436 218.058 22.8012 217.208 22.8152C214.338 22.8152 213.406 25.2002 213.406 28.0202V29.2352H218.44V33.5552H213.451V52.0502H207.636Z" fill="black"/>
<path d="M225.141 42.2245C225.276 46.3645 228.522 48.2245 232.188 48.2245C234.352 48.2563 236.503 47.9059 238.544 47.1895L239.401 51.1345C236.857 52.1572 234.135 52.667 231.392 52.6345C223.954 52.6345 219.581 48.1345 219.581 41.0845C219.581 34.7395 223.443 28.7695 230.776 28.7695C238.109 28.7695 240.663 34.8745 240.663 39.8995C240.671 40.7181 240.611 41.5359 240.483 42.3445L225.141 42.2245ZM235.209 38.1895C235.209 36.0745 234.307 32.5945 230.445 32.5945C226.869 32.5945 225.366 35.8345 225.141 38.1895H235.209Z" fill="black"/>
<path d="M243.443 18.6445H249.274V52.0495H243.488L243.443 18.6445Z" fill="black"/>
<path d="M274.819 18.6445V45.6445C274.819 47.9845 274.909 50.5195 274.999 52.0795H269.875L269.589 48.4645H269.499C268.753 49.763 267.666 50.8334 266.355 51.5604C265.044 52.2873 263.56 52.6432 262.061 52.5895C256.561 52.5895 252.219 47.9395 252.219 40.8895C252.219 33.2395 256.982 28.6795 262.482 28.6795C263.723 28.5897 264.967 28.8181 266.096 29.3432C267.224 29.8683 268.199 30.6725 268.928 31.6795H269.018V18.6445H274.819ZM269.018 38.6995C269.015 38.1966 268.97 37.6949 268.883 37.1995C268.644 36.0563 268.017 35.0304 267.108 34.2952C266.2 33.5601 265.064 33.1607 263.894 33.1645C260.183 33.1645 258.109 36.4495 258.109 40.6645C258.109 44.8795 260.183 47.9395 263.849 47.9395C265.024 47.9301 266.159 47.5159 267.063 46.7669C267.966 46.0179 268.583 44.9802 268.808 43.8295C268.94 43.2744 269 42.7049 268.988 42.1345L269.018 38.6995Z" fill="black"/>
</svg>
