<svg width="32" height="24" viewBox="0 0 32 24" fill="none" xmlns="http://www.w3.org/2000/svg">
<path d="M32 2.84684C30.8232 3.32792 29.5591 3.65297 28.2301 3.79989C29.6013 3.0429 30.6272 1.85148 31.1164 0.447947C29.828 1.15395 28.418 1.6509 26.9476 1.91719C25.9588 0.943152 24.6491 0.297546 23.2218 0.0806033C21.7945 -0.13634 20.3296 0.0875171 19.0543 0.71742C17.7791 1.34732 16.7649 2.34803 16.1693 3.56417C15.5737 4.78031 15.43 6.14385 15.7604 7.44309C13.1499 7.32216 10.5961 6.69618 8.26485 5.60576C5.93354 4.51535 3.87681 2.98487 2.22813 1.11366C1.66441 2.0108 1.34026 3.05097 1.34026 4.15875C1.33963 5.15601 1.60582 6.13799 2.11522 7.01757C2.62461 7.89715 3.36145 8.64713 4.26037 9.20098C3.21786 9.17037 2.19836 8.91049 1.28671 8.44295V8.52096C1.2866 9.91965 1.81102 11.2753 2.77098 12.3579C3.73094 13.4405 5.06731 14.1833 6.55333 14.4603C5.58624 14.7018 4.57231 14.7374 3.58813 14.5644C4.0074 15.7678 4.82409 16.8203 5.92389 17.5742C7.02368 18.3282 8.35151 18.7461 9.72148 18.7692C7.39587 20.4535 4.52376 21.3672 1.56716 21.3632C1.04343 21.3633 0.520146 21.3351 0 21.2786C3.00111 23.0589 6.49462 24.0037 10.0625 24C22.1404 24 28.7431 14.7711 28.7431 6.76698C28.7431 6.50694 28.736 6.24429 28.7233 5.98425C30.0076 5.12738 31.1162 4.0663 31.9972 2.85074L32 2.84684Z" fill="white"/>
</svg>
