<svg width="30" height="26" viewBox="0 0 30 26" fill="none" xmlns="http://www.w3.org/2000/svg">
<g clip-path="url(#clip0_830_4580)">
<path d="M9.47246 25.4011C20.7185 25.4011 26.8685 16.2442 26.8685 8.30364C26.8685 8.04355 26.8631 7.78463 26.8512 7.52689C28.045 6.67868 29.0826 5.62018 29.901 4.41522C28.8055 4.89381 27.6266 5.21598 26.3899 5.36125C27.6522 4.61731 28.6213 3.44049 29.0785 2.03758C27.8972 2.72587 26.589 3.22613 25.1961 3.49621C24.0804 2.3282 22.492 1.59766 20.7332 1.59766C17.3568 1.59766 14.6188 4.28878 14.6188 7.60596C14.6188 8.07751 14.6724 8.53618 14.7773 8.97614C9.69584 8.72484 5.18994 6.33367 2.17434 2.69775C1.64926 3.58579 1.34649 4.61734 1.34649 5.71803C1.34649 7.80283 2.42589 9.6433 4.06729 10.72C3.06419 10.6895 2.12189 10.4189 1.29829 9.96844C1.29739 9.99365 1.29739 10.0182 1.29739 10.0452C1.29739 12.9554 3.40489 15.3851 6.20249 15.9357C5.68873 16.0734 5.14819 16.1472 4.59029 16.1472C4.19693 16.1472 3.81369 16.1092 3.44119 16.0388C4.21957 18.4265 6.47669 20.1639 9.15269 20.2125C7.06009 21.8245 4.42399 22.7847 1.55899 22.7847C1.06609 22.7847 0.579156 22.7571 0.100586 22.7015C2.80649 24.4061 6.01949 25.4008 9.47279 25.4008" fill="white"/>
</g>
<defs>
<clipPath id="clip0_830_4580">
<rect width="30" height="25" fill="white" transform="translate(0 0.5)"/>
</clipPath>
</defs>
</svg>
